<svg xmlns="http://www.w3.org/2000/svg" xmlns:xlink="http://www.w3.org/1999/xlink" version="1.1" width="800px" height="1000px" viewBox="-0.5 -0.5 800 1000"><g><ellipse cx="370" cy="50" rx="30" ry="30" fill="#f8fafc" stroke="#cbd5e1" pointer-events="all"/><text x="370" y="54" fill="#000000" font-family="Helvetica" font-size="12px" text-anchor="middle" font-weight="bold">시작</text><rect x="270" y="110" width="200" height="60" rx="9" ry="9" fill="#f8fafc" stroke="#cbd5e1" pointer-events="all"/><text x="370" y="140" fill="#000000" font-family="Helvetica" font-size="12px" text-anchor="middle">포트 방향 및 초기 설정</text><path d="M 370 200 L 300 240 L 370 280 L 440 240 Z" fill="#f1f5f9" stroke="#64748b" pointer-events="all"/><text x="370" y="244" fill="#000000" font-family="Helvetica" font-size="12px" text-anchor="middle">무한 반복 시작</text><path d="M 370 310 L 300 350 L 370 390 L 440 350 Z" fill="#fff5f5" stroke="#feb2b2" pointer-events="all"/><text x="370" y="354" fill="#000000" font-family="Helvetica" font-size="12px" text-anchor="middle">SW1 눌림?</text><rect x="520" y="320" width="160" height="60" rx="9" ry="9" fill="#fff9c4" stroke="#fbc02d" pointer-events="all"/><text x="600" y="350" fill="#000000" font-family="Helvetica" font-size="11px" text-anchor="middle">UPUP / LED 이동</text><path d="M 370 420 L 300 460 L 370 500 L 440 460 Z" fill="#fff5f5" stroke="#feb2b2" pointer-events="all"/><text x="370" y="464" fill="#000000" font-family="Helvetica" font-size="12px" text-anchor="middle">SW2 눌림?</text><rect x="520" y="430" width="160" height="60" rx="9" ry="9" fill="#fff9c4" stroke="#fbc02d" pointer-events="all"/><text x="600" y="460" fill="#000000" font-family="Helvetica" font-size="11px" text-anchor="middle">dUUn / LED 이동</text><path d="M 370 530 L 300 570 L 370 610 L 440 570 Z" fill="#fff5f5" stroke="#feb2b2" pointer-events="all"/><text x="370" y="574" fill="#000000" font-family="Helvetica" font-size="12px" text-anchor="middle">SW3 눌림?</text><rect x="520" y="540" width="160" height="60" rx="9" ry="9" fill="#fff9c4" stroke="#fbc02d" pointer-events="all"/><text x="600" y="570" fill="#000000" font-family="Helvetica" font-size="11px" text-anchor="middle">FND/LED 끄기</text><rect x="310" y="640" width="120" height="50" rx="9" ry="9" fill="#f8fafc" stroke="#cbd5e1" pointer-events="all"/><text x="370" y="665" fill="#000000" font-family="Helvetica" font-size="11px" text-anchor="middle">기본 상태</text><rect x="280" y="740" width="180" height="60" rx="9" ry="9" fill="#f0fdf4" stroke="#86efac" pointer-events="all"/><text x="370" y="770" fill="#000000" font-family="Helvetica" font-size="12px" text-anchor="middle" font-weight="bold">포트 출력</text><rect x="280" y="830" width="180" height="60" rx="9" ry="9" fill="#f0fdf4" stroke="#86efac" pointer-events="all"/><text x="370" y="860" fill="#000000" font-family="Helvetica" font-size="12px" text-anchor="middle">Mux 및 대기</text><rect x="280" y="920" width="180" height="50" rx="9" ry="9" fill="#f0fdf4" stroke="#86efac" pointer-events="all"/><text x="370" y="945" fill="#000000" font-family="Helvetica" font-size="12px" text-anchor="middle">다음 자릿수 준비</text><path d="M 370 80 L 370 110 M 370 170 L 370 200 M 370 280 L 370 310" fill="none" stroke="#cbd5e1" stroke-width="1"/><path d="M 440 350 L 520 350 M 370 390 L 370 420 M 440 460 L 520 460 M 370 500 L 370 530 M 440 570 L 520 570 M 370 610 L 370 640" fill="none" stroke="#cbd5e1" stroke-width="1"/><path d="M 370 690 L 370 740 M 370 800 L 370 830 M 370 890 L 370 920" fill="none" stroke="#cbd5e1" stroke-width="1"/><path d="M 280 945 L 100 945 L 100 240 L 300 240" fill="none" stroke="#64748b" stroke-width="1" stroke-dasharray="4 4"/></g></svg>